<svg width="244" height="39" viewBox="0 0 244 39" fill="none" xmlns="http://www.w3.org/2000/svg">
<path d="M12.6543 5.9632L7.64523 15.3388C7.02013 16.5122 6.70691 17.8 6.70691 19.0895C6.70691 20.3792 7.02013 21.6668 7.64523 22.8402L12.6543 32.216C13.5776 33.9478 15.3832 35.0294 17.3481 35.0294H22.6687V32.3734H22.6669C21.6853 32.3734 20.7825 31.8334 20.3208 30.9676L15.3137 21.59C14.8952 20.8083 14.6866 19.9499 14.6866 19.0895C14.6866 18.2291 14.8952 17.3707 15.3137 16.5892L20.3208 7.21163C20.7825 6.34565 21.6853 5.80582 22.6669 5.80582H22.6687V3.14966H17.3481C15.3832 3.14966 13.5776 4.23145 12.6543 5.9632Z" fill="white"/>
<path d="M43.01 15.3389L38.0011 5.96327C37.0776 4.23133 35.2722 3.14973 33.3073 3.14973H27.9865V5.80569H27.9885C28.9701 5.80569 29.8728 6.34572 30.3344 7.2115L35.3415 16.5891C35.7602 17.3708 35.9684 18.2292 35.9684 19.0896C35.9684 19.95 35.7602 20.8084 35.3415 21.5901L30.3344 30.9675C29.8728 31.8335 28.9701 32.3733 27.9885 32.3733H27.9865V35.0295H33.3073C35.2722 35.0295 37.0776 33.9479 38.0011 32.2159L43.01 22.8403C43.6349 21.6669 43.9483 20.3791 43.9483 19.0896C43.9483 17.8001 43.6349 16.5123 43.01 15.3389Z" fill="white"/>
<path d="M58.3238 30.0344V7.46389H73.5324V11.3983H63.0958V16.7764H72.7499V20.7109H63.0958V26.1H73.5765V30.0344H58.3238ZM84.8866 30.365C83.1526 30.365 81.6612 29.9977 80.4121 29.263C79.1705 28.5209 78.2153 27.4923 77.5467 26.1772C76.8855 24.862 76.5549 23.3485 76.5549 21.6366C76.5549 19.9027 76.8892 18.3818 77.5578 17.074C78.2337 15.7589 79.1925 14.7339 80.4342 13.9992C81.6758 13.2571 83.1526 12.8861 84.8645 12.8861C86.3413 12.8861 87.6344 13.1543 88.7438 13.6906C89.8533 14.227 90.7312 14.9801 91.3778 15.9499C92.0243 16.9197 92.3807 18.0585 92.4468 19.3663H88.0165C87.8916 18.5214 87.5609 17.8418 87.0246 17.3275C86.4956 16.8058 85.8013 16.545 84.9417 16.545C84.2143 16.545 83.5788 16.7434 83.0351 17.1401C82.4987 17.5295 82.0799 18.0989 81.7787 18.8483C81.4775 19.5978 81.3269 20.5051 81.3269 21.5705C81.3269 22.6505 81.4738 23.5689 81.7677 24.3257C82.0689 25.0824 82.4914 25.6592 83.0351 26.0559C83.5788 26.4527 84.2143 26.651 84.9417 26.651C85.478 26.651 85.9593 26.5408 86.3854 26.3204C86.8189 26.1 87.1752 25.7804 87.4544 25.3616C87.7409 24.9355 87.9283 24.4249 88.0165 23.8297H92.4468C92.3733 25.1228 92.0207 26.2616 91.3888 27.2462C90.7643 28.2233 89.901 28.9875 88.7989 29.5385C87.6969 30.0895 86.3927 30.365 84.8866 30.365ZM103.101 30.365C101.389 30.365 99.9088 30.0014 98.6598 29.274C97.4181 28.5393 96.4593 27.518 95.7833 26.2102C95.1074 24.8951 94.7694 23.3705 94.7694 21.6366C94.7694 19.888 95.1074 18.3598 95.7833 17.052C96.4593 15.7368 97.4181 14.7156 98.6598 13.9882C99.9088 13.2535 101.389 12.8861 103.101 12.8861C104.813 12.8861 106.29 13.2535 107.531 13.9882C108.781 14.7156 109.743 15.7368 110.419 17.052C111.095 18.3598 111.433 19.888 111.433 21.6366C111.433 23.3705 111.095 24.8951 110.419 26.2102C109.743 27.518 108.781 28.5393 107.531 29.274C106.29 30.0014 104.813 30.365 103.101 30.365ZM103.123 26.7282C103.902 26.7282 104.552 26.5078 105.074 26.0669C105.596 25.6188 105.989 25.009 106.253 24.2375C106.525 23.466 106.661 22.5881 106.661 21.6035C106.661 20.619 106.525 19.741 106.253 18.9696C105.989 18.1981 105.596 17.5883 105.074 17.1401C104.552 16.6919 103.902 16.4679 103.123 16.4679C102.337 16.4679 101.676 16.6919 101.139 17.1401C100.61 17.5883 100.21 18.1981 99.9382 18.9696C99.6737 19.741 99.5414 20.619 99.5414 21.6035C99.5414 22.5881 99.6737 23.466 99.9382 24.2375C100.21 25.009 100.61 25.6188 101.139 26.0669C101.676 26.5078 102.337 26.7282 103.123 26.7282ZM114.486 30.0344V13.1065H118.96V16.0932H119.158C119.511 15.1013 120.099 14.3188 120.922 13.7457C121.745 13.1726 122.729 12.8861 123.875 12.8861C125.036 12.8861 126.024 13.1763 126.84 13.7567C127.655 14.3298 128.199 15.1086 128.471 16.0932H128.647C128.993 15.1233 129.617 14.3482 130.521 13.7678C131.432 13.18 132.508 12.8861 133.75 12.8861C135.33 12.8861 136.612 13.3894 137.596 14.396C138.588 15.3952 139.084 16.8132 139.084 18.65V30.0344H134.4V19.5757C134.4 18.6353 134.15 17.9299 133.651 17.4597C133.151 16.9895 132.527 16.7544 131.777 16.7544C130.925 16.7544 130.26 17.0262 129.782 17.5699C129.305 18.1063 129.066 18.8153 129.066 19.6969V30.0344H124.514V19.4765C124.514 18.6463 124.276 17.985 123.798 17.4928C123.328 17.0005 122.707 16.7544 121.936 16.7544C121.414 16.7544 120.944 16.8866 120.525 17.1511C120.114 17.4083 119.787 17.772 119.544 18.2422C119.302 18.7051 119.18 19.2488 119.18 19.8733V30.0344H114.486ZM142.792 30.0344V13.1065H147.267V16.0932H147.465C147.818 15.1013 148.406 14.3188 149.229 13.7457C150.051 13.1726 151.036 12.8861 152.182 12.8861C153.343 12.8861 154.331 13.1763 155.147 13.7567C155.962 14.3298 156.506 15.1086 156.778 16.0932H156.954C157.299 15.1233 157.924 14.3482 158.828 13.7678C159.739 13.18 160.815 12.8861 162.057 12.8861C163.636 12.8861 164.918 13.3894 165.903 14.396C166.895 15.3952 167.391 16.8132 167.391 18.65V30.0344H162.707V19.5757C162.707 18.6353 162.457 17.9299 161.958 17.4597C161.458 16.9895 160.833 16.7544 160.084 16.7544C159.232 16.7544 158.567 17.0262 158.089 17.5699C157.612 18.1063 157.373 18.8153 157.373 19.6969V30.0344H152.821V19.4765C152.821 18.6463 152.583 17.985 152.105 17.4928C151.635 17.0005 151.014 16.7544 150.242 16.7544C149.721 16.7544 149.251 16.8866 148.832 17.1511C148.42 17.4083 148.093 17.772 147.851 18.2422C147.609 18.7051 147.487 19.2488 147.487 19.8733V30.0344H142.792ZM178.814 30.365C177.073 30.365 175.574 30.0124 174.317 29.3071C173.068 28.5944 172.106 27.5878 171.43 26.2874C170.754 24.9796 170.416 23.433 170.416 21.6476C170.416 19.9063 170.754 18.3781 171.43 17.063C172.106 15.7478 173.057 14.7229 174.284 13.9882C175.519 13.2535 176.966 12.8861 178.626 12.8861C179.743 12.8861 180.783 13.0661 181.745 13.4261C182.715 13.7788 183.56 14.3115 184.28 15.0241C185.007 15.7368 185.573 16.6332 185.977 17.7132C186.381 18.7859 186.583 20.0423 186.583 21.4823V22.7717H172.29V19.8623H182.164C182.164 19.1863 182.017 18.5875 181.723 18.0659C181.429 17.5442 181.022 17.1365 180.5 16.8426C179.986 16.5413 179.387 16.3907 178.704 16.3907C177.991 16.3907 177.359 16.556 176.808 16.8866C176.264 17.2099 175.838 17.6471 175.53 18.1981C175.221 18.7418 175.063 19.348 175.056 20.0165V22.7828C175.056 23.6203 175.21 24.344 175.519 24.9538C175.835 25.5637 176.279 26.0339 176.852 26.3645C177.425 26.6951 178.105 26.8604 178.891 26.8604C179.413 26.8604 179.89 26.787 180.324 26.64C180.757 26.4931 181.128 26.2727 181.437 25.9788C181.745 25.6849 181.98 25.3249 182.142 24.8987L186.484 25.1853C186.264 26.2286 185.812 27.1396 185.129 27.9184C184.453 28.6899 183.578 29.2924 182.506 29.7258C181.44 30.152 180.21 30.365 178.814 30.365ZM189.647 30.0344V13.1065H194.199V16.0601H194.375C194.684 15.0094 195.202 14.2159 195.929 13.6796C196.656 13.1359 197.494 12.8641 198.442 12.8641C198.677 12.8641 198.93 12.8788 199.202 12.9081C199.474 12.9375 199.713 12.9779 199.919 13.0294V17.1952C199.698 17.1291 199.393 17.0703 199.004 17.0189C198.614 16.9675 198.258 16.9418 197.935 16.9418C197.244 16.9418 196.627 17.0924 196.083 17.3936C195.547 17.6875 195.121 18.0989 194.805 18.6279C194.496 19.1569 194.342 19.7667 194.342 20.4574V30.0344H189.647ZM209.206 30.365C207.472 30.365 205.981 29.9977 204.732 29.263C203.49 28.5209 202.535 27.4923 201.867 26.1772C201.205 24.862 200.875 23.3485 200.875 21.6366C200.875 19.9027 201.209 18.3818 201.878 17.074C202.553 15.7589 203.512 14.7339 204.754 13.9992C205.996 13.2571 207.472 12.8861 209.184 12.8861C210.661 12.8861 211.954 13.1543 213.064 13.6906C214.173 14.227 215.051 14.9801 215.698 15.9499C216.344 16.9197 216.7 18.0585 216.767 19.3663H212.336C212.211 18.5214 211.881 17.8418 211.344 17.3275C210.815 16.8058 210.121 16.545 209.261 16.545C208.534 16.545 207.899 16.7434 207.355 17.1401C206.819 17.5295 206.4 18.0989 206.098 18.8483C205.797 19.5978 205.647 20.5051 205.647 21.5705C205.647 22.6505 205.794 23.5689 206.087 24.3257C206.389 25.0824 206.811 25.6592 207.355 26.0559C207.899 26.4527 208.534 26.651 209.261 26.651C209.798 26.651 210.279 26.5408 210.705 26.3204C211.139 26.1 211.495 25.7804 211.774 25.3616C212.061 24.9355 212.248 24.4249 212.336 23.8297H216.767C216.693 25.1228 216.34 26.2616 215.709 27.2462C215.084 28.2233 214.221 28.9875 213.119 29.5385C212.017 30.0895 210.713 30.365 209.206 30.365ZM227.487 30.365C225.746 30.365 224.247 30.0124 222.991 29.3071C221.742 28.5944 220.779 27.5878 220.103 26.2874C219.427 24.9796 219.089 23.433 219.089 21.6476C219.089 19.9063 219.427 18.3781 220.103 17.063C220.779 15.7478 221.731 14.7229 222.958 13.9882C224.192 13.2535 225.639 12.8861 227.3 12.8861C228.416 12.8861 229.456 13.0661 230.419 13.4261C231.388 13.7788 232.233 14.3115 232.953 15.0241C233.681 15.7368 234.246 16.6332 234.651 17.7132C235.055 18.7859 235.257 20.0423 235.257 21.4823V22.7717H220.963V19.8623H230.837C230.837 19.1863 230.69 18.5875 230.397 18.0659C230.103 17.5442 229.695 17.1365 229.173 16.8426C228.659 16.5413 228.06 16.3907 227.377 16.3907C226.664 16.3907 226.032 16.556 225.481 16.8866C224.938 17.2099 224.511 17.6471 224.203 18.1981C223.894 18.7418 223.736 19.348 223.729 20.0165V22.7828C223.729 23.6203 223.883 24.344 224.192 24.9538C224.508 25.5637 224.952 26.0339 225.525 26.3645C226.098 26.6951 226.778 26.8604 227.564 26.8604C228.086 26.8604 228.563 26.787 228.997 26.64C229.43 26.4931 229.801 26.2727 230.11 25.9788C230.419 25.6849 230.654 25.3249 230.815 24.8987L235.157 25.1853C234.937 26.2286 234.485 27.1396 233.802 27.9184C233.126 28.6899 232.252 29.2924 231.179 29.7258C230.114 30.152 228.883 30.365 227.487 30.365Z" fill="white"/>
</svg>
